<?xml version="1.0" encoding="UTF-8"?>
<svg id="Layer_2" data-name="Layer 2" xmlns="http://www.w3.org/2000/svg" viewBox="0 0 277.5 277.51">
  <defs>
    <style>
      .cls-1 {
        fill: #fff;
      }
    </style>
  </defs>
  <g id="Layer_1-2" data-name="Layer 1">
    <path class="cls-1" d="M78.61,34.44c2.77-1.6,5.9-.7,7.49,2.06,1.59,2.76.8,5.91-1.97,7.51s-5.9.7-7.49-2.06c-1.59-2.76-.8-5.91,1.97-7.51ZM79.44,35.88c-1.87,1.08-2.24,3.19-1.14,5.11,1.09,1.9,3.12,2.66,4.99,1.58,1.86-1.07,2.23-3.21,1.14-5.11-1.1-1.91-3.13-2.65-4.99-1.58ZM99.36,36.47l-3.49-10.08,4.43-1.53c2.12-.73,3.8.31,4.39,2.02.59,1.71-.1,3.57-2.2,4.3l-2.66.92,1.3,3.76-1.77.61ZM100.6,26.5l-2.42.84,1.11,3.2,2.42-.84c1-.35,1.5-1.23,1.17-2.2-.33-.97-1.28-1.35-2.28-1.01ZM116.51,20.54l1.87-.28.94,6.33c.25,1.68,1.35,2.63,3.12,2.37,1.76-.26,2.53-1.49,2.28-3.17l-.94-6.33,1.87-.28.95,6.38c.39,2.63-.85,4.59-3.91,5.05-3.07.46-4.83-1.08-5.22-3.67l-.95-6.39ZM139.25,29.17l.33-10.66,1.87.06-.28,9.02,4.7.15-.05,1.65-6.57-.2ZM157.24,30.71l2.13-10.46,7.17,1.46-.33,1.62-5.33-1.09-.55,2.71,5.22,1.06-.33,1.62-5.22-1.06-.59,2.9,5.33,1.09-.33,1.62-7.17-1.46ZM182.5,38.28l-2.23-9.3-2.93,7.2-1.73-.71,4.02-9.89,1.78.72,2.2,9.07,2.85-7.01,1.73.71-4.02,9.89-1.67-.68ZM197.36,39.83c1.8-2.74,5.08-3.27,7.64-1.58,1.87,1.23,2.36,2.9,2.33,4.4l-1.78-.2c.06-1.02-.43-2.14-1.46-2.82-1.7-1.12-3.89-.63-5.12,1.24-1.23,1.87-.81,4.08.89,5.2,1.03.68,2.25.69,3.16.22l.89,1.56c-1.38.62-3.1.84-4.97-.39-2.57-1.69-3.38-4.9-1.58-7.64ZM211.49,56.77l7.33-7.77,5.32,5.02-1.13,1.2-3.96-3.74-1.9,2.01,3.88,3.66-1.13,1.2-3.88-3.66-2.03,2.15,3.96,3.73-1.13,1.2-5.32-5.02ZM237.02,79.05c2.88-1.58,6.02-.52,7.5,2.18,1.08,1.96.74,3.67,0,4.98l-1.49-1.01c.52-.87.62-2.09.03-3.17-.98-1.78-3.15-2.38-5.11-1.3s-2.62,3.23-1.64,5.01c.59,1.08,1.66,1.66,2.69,1.68l.06,1.79c-1.51-.1-3.13-.71-4.21-2.67-1.48-2.69-.7-5.92,2.18-7.5ZM243.85,107.74l1.7-1.38-1.57-4.8-2.19-.11-.64-1.95,11.45.67.73,2.22-8.84,7.3-.64-1.95ZM251.46,101.77l-5.75-.23,1.24,3.8,4.5-3.58ZM246.81,120.38l10.58-1.4.69,5.2c.25,1.93-.81,3.17-2.3,3.37-1.33.18-2.33-.56-2.67-1.52-.03,1.15-1.03,2.22-2.33,2.39-1.63.22-3-.72-3.26-2.7l-.71-5.35ZM248.69,122.02l.4,3.04c.13,1.01.77,1.54,1.69,1.42.79-.1,1.39-.75,1.25-1.81l-.4-3.04-2.93.39ZM253.26,121.42l.39,2.97c.13.95.77,1.42,1.56,1.31.79-.1,1.31-.72,1.18-1.67l-.39-2.96-2.74.36ZM258.93,146.04c-.19,3.19-2.66,5.31-5.83,5.12-3.18-.19-5.37-2.58-5.18-5.77s2.66-5.31,5.83-5.12c3.18.19,5.38,2.58,5.18,5.77ZM257.27,145.95c.13-2.16-1.43-3.63-3.64-3.76-2.19-.13-3.93,1.14-4.06,3.3-.13,2.14,1.45,3.63,3.64,3.76,2.2.13,3.93-1.16,4.06-3.3ZM121.94,144.68c-1.54-.7-3.01-1.59-4.41-2.69-3.82-3-6.82-7.15-8.99-12.45-2.17-5.3-3.25-11.23-3.25-17.77,0-8.47,1.84-15.1,5.53-19.89,3.68-4.79,8.87-7.18,15.55-7.18,5.23,0,9.8,1.41,13.69,4.24,3.89,2.82,6.89,6.75,8.99,11.78,2.1,5.03,3.15,10.71,3.15,17.05,0,5.99-.95,11.16-2.84,15.5-1.9,4.34-4.48,7.63-7.75,9.87-1.34.91-2.75,1.63-4.22,2.17-.19.77-.35,1.57-.49,2.37,2.81-.75,5.52-1.83,8.12-3.25,5.54-3.03,9.97-7.16,13.28-12.4,3.31-5.23,4.96-10.98,4.96-17.25,0-5.65-1.33-10.99-3.98-16.01-2.65-5.03-6.46-9.07-11.42-12.14-4.96-3.06-10.71-4.6-17.25-4.6-5.85,0-11.59,1.28-17.2,3.82-5.61,2.55-10.21,6.35-13.79,11.42-3.58,5.06-5.37,11.14-5.37,18.24,0,6.06,1.36,11.66,4.08,16.79,2.72,5.13,6.58,9.2,11.57,12.19,3.36,2.01,7.04,3.34,11.04,4,.26-1.29.61-2.55,1.02-3.79ZM179.65,125.17c.55.28.89.53,1.03.78.14.24.27.77.41,1.6l1.24,13.64c0,.21-.17.35-.52.41-.35.07-.59-.03-.72-.31-1.79-5.65-4.46-9.95-8.01-12.91-3.55-2.96-7.94-4.44-13.17-4.44s-9.52,1.26-13.48,3.77c-3.96,2.51-7.04,6.13-9.25,10.85-2.21,4.72-3.31,10.21-3.31,16.48s1.17,11.73,3.51,16.58c2.34,4.86,5.54,8.63,9.61,11.31,4.06,2.69,8.64,4.03,13.74,4.03s9.21-1.33,12.55-3.98c3.34-2.65,6.28-6.87,8.83-12.66.07-.21.27-.27.62-.21.34.07.52.17.52.31l-1.34,12.4c-.07.83-.19,1.34-.36,1.55-.17.21-.53.45-1.08.72-6.2,2.55-12.78,3.82-19.73,3.82-7.37,0-13.95-1.39-19.73-4.18-5.79-2.79-10.3-6.72-13.53-11.78-3.24-5.06-4.86-10.86-4.86-17.41s1.69-12.26,5.06-17.36c3.37-5.1,7.99-9.07,13.84-11.93,5.85-2.86,12.4-4.29,19.63-4.29,7.65,0,13.81,1.07,18.49,3.2ZM277.5,138.75C277.5,62.25,215.25,0,138.75,0,76.93,0,24.43,40.64,6.55,96.61h-.03s-.01.08-.01.13c-4.23,13.26-6.51,27.37-6.51,42.01,0,76.51,62.24,138.76,138.75,138.76,27.34,0,52.87-7.96,74.38-21.68,3.99-2.11,7.72-4.7,11.11-7.79l-.04-.04c32.42-25.42,53.3-64.94,53.3-109.25ZM212.52,255.04c-11.88,6.23-26.11,7.99-40.68,4.79-8.93-1.96-17.58-5.57-25.73-10.73-5.07-3.21-9.53-7.23-13.83-11.12-2.61-2.35-5.3-4.78-8.12-7.03-3.32-2.65-6.37-4.81-9.33-6.59-10.87-6.57-22.02-10.04-34.09-10.61-18.74-.88-39.81-4.36-54.02-23.44-9.51-12.76-15.74-29.62-19.04-51.54-.36-2.4-.68-4.86-.95-7.33-1.15-10.46-.86-23.96.75-34.48C25.22,41.38,77.35,1,138.75,1c75.95,0,137.75,61.8,137.75,137.75,0,48.84-25.55,91.82-63.98,116.29Z"/>
  </g>
</svg>